<svg xmlns="http://www.w3.org/2000/svg" width="512.074" height="512.074" viewBox="0 0 512.074 512.074">
  <path id="sunrise" d="M361.5,1.2a16.173,16.173,0,0,1,9.6,11.9L391,121l107.9,19.8a16.173,16.173,0,0,1,11.9,9.6,15.885,15.885,0,0,1-1.6,15.2L446.9,256l62.3,90.3a15.886,15.886,0,0,1,1.6,15.2,16.173,16.173,0,0,1-11.9,9.6L391,391,371.1,498.9a16.173,16.173,0,0,1-9.6,11.9,15.886,15.886,0,0,1-15.2-1.6L256,446.9l-90.3,62.3a15.886,15.886,0,0,1-15.2,1.6,16.173,16.173,0,0,1-9.6-11.9L121,391,13.1,371.1a16.173,16.173,0,0,1-11.9-9.6,15.886,15.886,0,0,1,1.6-15.2L65.1,256,2.8,165.7a15.886,15.886,0,0,1-1.6-15.2,16.173,16.173,0,0,1,11.9-9.6L121,121,140.9,13.1a16.173,16.173,0,0,1,9.6-11.9,15.886,15.886,0,0,1,15.2,1.6L256,65.1,346.3,2.8a15.886,15.886,0,0,1,15.2-1.6ZM160,256a96,96,0,1,1,96,96A96,96,0,0,1,160,256Zm224,0A128,128,0,1,0,256,384,128,128,0,0,0,384,256Z" transform="translate(0.037 0.037)" fill="#f2f0e9"/>
</svg>
