<svg xmlns="http://www.w3.org/2000/svg" width="512.039" height="512.04" viewBox="0 0 512.039 512.04">
  <path id="sunset" d="M375.7,19.7A23.993,23.993,0,0,0,338.5,4.3L256,61.1,173.5,4.2a23.993,23.993,0,0,0-37.2,15.4l-18.1,98.5L19.7,136.3A23.993,23.993,0,0,0,4.3,173.5L61.1,256,4.2,338.5a24.083,24.083,0,0,0-2.4,22.8,23.8,23.8,0,0,0,17.8,14.4l98.5,18.1,18.1,98.5a23.993,23.993,0,0,0,37.2,15.4L256,450.9l82.5,56.9a23.993,23.993,0,0,0,37.2-15.4l18.1-98.5,98.5-18.1a23.993,23.993,0,0,0,15.4-37.2L450.9,256l56.9-82.5a23.993,23.993,0,0,0-15.4-37.2l-98.5-18.1ZM269.6,110l65.6-45.2,14.4,78.3a24.07,24.07,0,0,0,19.3,19.3l78.3,14.4L402,242.4a23.77,23.77,0,0,0,0,27.2l45.2,65.6-78.3,14.4a24.07,24.07,0,0,0-19.3,19.3l-14.4,78.3L269.6,402a23.77,23.77,0,0,0-27.2,0l-65.6,45.2-14.4-78.3a24.07,24.07,0,0,0-19.3-19.3L64.8,335.2,110,269.6a23.77,23.77,0,0,0,0-27.2L64.8,176.8l78.3-14.4a24.071,24.071,0,0,0,19.3-19.3l14.4-78.3L242.4,110A23.77,23.77,0,0,0,269.6,110ZM256,368A112,112,0,1,0,144,256,112,112,0,0,0,256,368ZM192,256a64,64,0,1,1,64,64A64,64,0,0,1,192,256Z" transform="translate(0.02 0.02)" fill="#f2f0e9"/>
</svg>
