<svg xmlns="http://www.w3.org/2000/svg" width="512" height="512" viewBox="0 0 512 512">
  <path id="temp-high" d="M416,64a32,32,0,1,1-32,32A32,32,0,0,1,416,64Zm0,128a96,96,0,1,0-96-96A96,96,0,0,0,416,192ZM96,112a48,48,0,0,1,96,0V276.5c0,17.3,7.1,31.9,15.3,42.5a80.039,80.039,0,1,1-126.6.1C88.9,308.4,96,293.8,96,276.5ZM144,0A112.008,112.008,0,0,0,32,112V276.5a3.933,3.933,0,0,1-.2.6,12.02,12.02,0,0,1-1.7,2.8A144,144,0,1,0,288,368a143,143,0,0,0-30.1-88.1,12.022,12.022,0,0,1-1.7-2.8,3.931,3.931,0,0,1-.2-.6V112A112.008,112.008,0,0,0,144,0Zm0,416a48.026,48.026,0,0,0,16-93.3V112a16,16,0,0,0-32,0V322.7A48.026,48.026,0,0,0,144,416Z" fill="#f2f0e9"/>
</svg>
