<svg xmlns="http://www.w3.org/2000/svg" width="512" height="512" viewBox="0 0 512 512">
  <path id="temp-low" d="M448,96a32,32,0,1,0-32,32A32,32,0,0,0,448,96ZM320,96a96,96,0,1,1,96,96A96,96,0,0,1,320,96ZM144,64a48.012,48.012,0,0,0-48,48V276.5c0,17.3-7.1,31.9-15.3,42.5a80.039,80.039,0,1,0,126.6.1c-8.2-10.6-15.3-25.2-15.3-42.5V112A48.012,48.012,0,0,0,144,64ZM32,112a112,112,0,0,1,224,0V276.5a3.933,3.933,0,0,0,.2.6,12.02,12.02,0,0,0,1.7,2.8A144,144,0,1,1,0,368a143,143,0,0,1,30.1-88.1,12.021,12.021,0,0,0,1.7-2.8,3.932,3.932,0,0,0,.2-.6ZM192,368a48,48,0,1,1-64-45.3V272a16,16,0,0,1,32,0v50.7A48.129,48.129,0,0,1,192,368Z" fill="#f2f0e9"/>
</svg>
