<svg xmlns="http://www.w3.org/2000/svg" width="444.622" height="512" viewBox="0 0 444.622 512">
  <path id="wind" d="M224,0a23.942,23.942,0,0,1,24,24V70.1l23-23A23.971,23.971,0,0,1,304.9,81l-57,57v76.5l66.2-38.2L335,98.5a24.014,24.014,0,1,1,46.4,12.4L373,142.2l37.1-21.4a24.013,24.013,0,0,1,24,41.6L397,183.8l31.5,8.4a24.014,24.014,0,0,1-12.4,46.4l-77.8-20.9L272,256l66.2,38.2L416,273.3a24.014,24.014,0,0,1,12.4,46.4L397,328.2l37.1,21.4a24.013,24.013,0,1,1-24,41.6L373,369.8l8.4,31.5A24.014,24.014,0,0,1,335,413.7l-20.9-77.8L248,297.6v76.5l57,57A23.971,23.971,0,0,1,271.1,465l-23-23v46a24,24,0,0,1-48,0V441.9l-23,23A23.971,23.971,0,1,1,143.2,431l57-57V297.6L134,335.8l-20.9,77.8a24.014,24.014,0,0,1-46.4-12.4L75,369.8,37.9,391.2a24.013,24.013,0,1,1-24-41.6L51,328.2l-31.5-8.4a24.014,24.014,0,1,1,12.4-46.4l77.8,20.9L176,256l-66.2-38.2L31.9,238.6a24.014,24.014,0,1,1-12.4-46.4L51,183.8,13.9,162.4a24.013,24.013,0,0,1,24-41.6L75,142.2l-8.4-31.5A24.014,24.014,0,1,1,113,98.3l20.9,77.8L200,214.4V137.9L143,81a23.971,23.971,0,1,1,33.9-33.9l23,23V24a23.942,23.942,0,0,1,24-24Z" transform="translate(-1.689)" fill="#f2f0e9"/>
</svg>
